<?xml version="1.0" encoding="UTF-8" standalone="no"?>
<svg
   viewBox="0 0 999.99998 460.27008"
   version="1.1"
   id="svg278"
   sodipodi:docname="SBC-clean.svg"
   inkscape:version="1.2 (dc2aedaf03, 2022-05-15)"
   inkscape:export-filename="SBC-clean.png"
   inkscape:export-xdpi="9.6000004"
   inkscape:export-ydpi="9.6000004"
   width="1000"
   height="460.27008"
   xmlns:inkscape="http://www.inkscape.org/namespaces/inkscape"
   xmlns:sodipodi="http://sodipodi.sourceforge.net/DTD/sodipodi-0.dtd"
   xmlns="http://www.w3.org/2000/svg"
   xmlns:svg="http://www.w3.org/2000/svg">
  <sodipodi:namedview
     id="namedview280"
     pagecolor="#505050"
     bordercolor="#eeeeee"
     borderopacity="1"
     inkscape:showpageshadow="0"
     inkscape:pageopacity="0"
     inkscape:pagecheckerboard="0"
     inkscape:deskcolor="#505050"
     showgrid="false"
     inkscape:zoom="1.761"
     inkscape:cx="500.28393"
     inkscape:cy="241.34015"
     inkscape:window-width="2560"
     inkscape:window-height="1009"
     inkscape:window-x="2552"
     inkscape:window-y="-8"
     inkscape:window-maximized="1"
     inkscape:current-layer="Layer_2"
     inkscape:lockguides="false" />
  <defs
     id="defs144">
    <style
       id="style142">
      .cls-1 {
        fill: #319e74;
      }

      .cls-2 {
        fill: #0048b3;
      }
    </style>
  </defs>
  <rect
     style="fill:#ffffff;fill-opacity:1;stroke:#ff0101;stroke-width:2.13899;stroke-opacity:0"
     id="rect561"
     width="997.86102"
     height="458.1311"
     x="1.069495"
     y="1.069495" />
  <g
     id="Layer_2"
     data-name="Layer 2"
     transform="matrix(1.5891066,0,0,1.5891066,0.40762238,-50.723646)">
    <rect
       class="cls-2"
       x="26.51"
       y="289.23999"
       width="575.10999"
       height="4.3800001"
       id="rect150" />
    <g
       id="g163">
      <path
         class="cls-1"
         d="m 328.68,158.32 c 3.75,-2.08 8.47,-4.78 11.75,-10.46 0.88,-1.53 3.27,-5.8 3.19,-11.75 -0.1,-6.68 -3.26,-11.32 -4.72,-13.4 -3.93,-5.59 -8.9,-8.08 -12.64,-9.96 -3.08,-1.54 -8.21,-3.65 -15.07,-4.34 h -42.51 v 55.15 h 40.34 c 4.77,-0.12 12.13,-1.04 19.66,-5.24 z"
         id="path157" />
      <path
         class="cls-1"
         d="m 340.68,184.49 c -8.88,-7.39 -18.72,-8.46 -22.46,-8.68 h -49.66 v 57.96 h 51.7 c 3.63,-0.23 12.2,-1.27 20.17,-7.53 3.18,-2.5 12.33,-9.68 12.38,-20.81 0.05,-10.79 -8.49,-17.91 -12.13,-20.94 z"
         id="path159" />
      <path
         class="cls-1"
         d="m 601.62,60.66 -5.58,-0.8 H 32.21 l -5.57,0.8 v 13.03 h 54.92 c -3.41,1.17 -7.55,2.69 -12.2,4.63 -8.26,3.47 -12.94,5.43 -18.47,9.11 -4.9,3.27 -12.29,8.31 -17.87,17.62 -2.56,4.27 -6.28,10.48 -6.13,18.98 0.15,7.83 3.51,13.48 5.87,17.36 5.69,9.29 13.48,15.46 24.17,21.7 8.27,4.83 16.15,8.46 39.66,16.94 5.58,2 18.3,6.67 43.75,16 12.1,4.43 24.55,9.16 31.83,19.66 4.65,6.7 4.73,12.22 4.72,13.49 -0.03,5.68 -2.51,9.96 -3.83,11.87 -5.03,7.31 -13.34,9.27 -22.21,11.23 -4.26,0.94 -15.08,2.97 -30.13,1.02 -11.91,-1.54 -21.37,-2.77 -30.76,-9.7 C 79.34,235.77 74.72,225 72.72,218.83 H 26.51 c -0.06,5.01 0.59,13.67 5.62,22.35 6.17,10.66 15.47,15.35 24.51,19.91 6.96,3.51 18.71,8.3 34.59,9.57 H 26.51 v 14.3 h 575.11 v -14.55 h -55.99 c 7.67,-1.93 19.86,-6.15 31.99,-15.83 13.94,-11.13 20.9,-23.96 24,-30.72 l -11.53,-8.88 -10.01,-7.72 c 0,0 -16.72,27.58 -37.94,40.7 -6.98,4.32 -14.45,7.06 -21.97,6.75 0,0 -16.29,0.78 -30.06,-8.19 -0.01,0 -0.01,-0.01 -0.02,-0.01 -11.42,-6.32 -18.12,-15.38 -21.92,-20.53 -11.17,-15.12 -14.02,-30.61 -14.88,-38.64 -0.09,-0.81 -0.21,-1.61 -0.33,-2.41 -1.3,-8.9 -0.67,-20.38 -0.18,-26.5 0.27,-3.32 0.76,-6.61 1.54,-9.85 1.98,-8.32 6.04,-19.77 14.72,-30.98 3.29,-4.24 10.97,-13.95 24.58,-20.87 5.37,-2.74 13.89,-6.95 25.53,-6.77 2.29,0.04 8,0.29 14.81,2.62 11.11,3.8 17.73,10.59 26.8,20.11 5.42,5.68 12.4,13.82 19.35,24.63 l 21.51,-16.59 c -2.18,-4.84 -5.68,-11.38 -11.24,-18.19 C 587.27,98.72 579.8,90.27 567.53,83.2 558.1,77.76 549.21,75.07 542.51,73.69 h 59.11 z M 401.87,223.69 c -4.84,7.97 -11.09,12.2 -15.06,14.89 -2.16,1.46 -7.95,5.17 -16.34,7.74 -4.59,1.41 -8.63,2.06 -11.66,2.39 H 224.42 c 2.75,-1.46 9.82,-5.68 14.13,-14.39 0.68,-1.37 3.33,-6.97 3.32,-14.72 -0.01,-10.38 -4.78,-17.76 -6.72,-20.68 -4.24,-6.37 -9.78,-10.87 -21.36,-17.11 -10.69,-5.75 -18.55,-8.68 -38.56,-15.91 -13.43,-4.85 -26.76,-9.97 -40.17,-14.9 -4.19,-1.53 -14.69,-5.39 -27.15,-12.51 -4.23,-2.42 -13.01,-7.69 -17.78,-16.76 -1.73,-3.28 -2.37,-6 -2.3,-8.68 0.13,-4.92 2.64,-8.43 4.08,-10.39 4.34,-5.89 10.18,-8.27 14.05,-9.78 5.99,-2.35 10.71,-2.66 19.66,-3.24 7.49,-0.48 13.49,-0.23 17.02,0 10.94,0.72 16.49,1.09 23.4,3.92 8.87,3.63 14.49,9.08 17.7,12.25 5.74,5.67 9.33,11.4 11.49,15.49 l 46,0.09 v -2.26 c 0,0 1.09,-7.27 -21.06,-23.42 h 100.59 c 14.37,0.49 25.95,2.88 34.05,5.08 10.05,2.73 17.92,6.03 25.27,10.73 3.59,2.28 10.46,7.08 13.96,14.46 1.86,3.92 2.02,6.99 2.04,7.92 0.05,1.7 -0.12,4.31 -1.61,8.08 -2.42,6.11 -6.39,10.43 -9.62,13.45 -7.66,7.17 -16.17,11.67 -22.67,14.43 -0.42,0.18 -0.29,0.79 0.16,0.81 5.05,0.16 11.52,1.07 18.42,3.99 4.25,1.8 14.15,6.15 20.86,16.69 2.17,3.41 5.84,9.18 5.61,17.1 -0.19,6.74 -3.11,11.53 -5.36,15.24 z m 68.98,46.72 h -62.89 v -57.58 c 1.4,5.4 4.12,13.36 9.7,21.71 6.59,9.86 13.94,15.43 19.27,19.4 6.6,4.91 17.87,12.02 33.92,16.47 z M 448.08,85.22 c -14.65,8.89 -23.09,19.81 -26.72,25.02 -8.09,11.61 -11.67,22.75 -13.36,29.79 V 73.69 h 70.52 c -7.83,1.42 -18.86,4.5 -30.44,11.53 z"
         id="path161" />
    </g>
  </g>
</svg>
