<?xml version="1.0" encoding="UTF-8"?>
<svg xmlns="http://www.w3.org/2000/svg" viewBox="0 0 628.26 376.78">
  <defs>
    <style>
      .cls-1 {
        fill: #319e74;
      }

      .cls-2 {
        fill: #0048b3;
      }
    </style>
  </defs>
  <g id="Layer_1" data-name="Layer 1">
    <g>
      <path class="cls-2" d="M314.13,12.03L0,57.09v7.4l26.64-3.83,5.57-.8L314.13,19.26l281.91,40.6,5.58.8,26.63,3.83v-7.4L314.13,12.03Z"/>
      <polygon class="cls-2" points="314.13 0 0 45.06 0 52.47 314.13 7.23 628.26 52.47 628.26 45.06 314.13 0"/>
      <rect class="cls-2" x="26.51" y="289.24" width="575.11" height="4.38"/>
      <rect class="cls-2" x="26.51" y="329.87" width="575.11" height="4.61"/>
    </g>
  </g>
  <g id="Layer_2" data-name="Layer 2">
    <g>
      <path class="cls-1" d="M328.68,158.32c3.75-2.08,8.47-4.78,11.75-10.46.88-1.53,3.27-5.8,3.19-11.75-.1-6.68-3.26-11.32-4.72-13.4-3.93-5.59-8.9-8.08-12.64-9.96-3.08-1.54-8.21-3.65-15.07-4.34h-42.51v55.15h40.34c4.77-.12,12.13-1.04,19.66-5.24Z"/>
      <path class="cls-1" d="M340.68,184.49c-8.88-7.39-18.72-8.46-22.46-8.68h-49.66v57.96h51.7c3.63-.23,12.2-1.27,20.17-7.53,3.18-2.5,12.33-9.68,12.38-20.81.05-10.79-8.49-17.91-12.13-20.94Z"/>
      <path class="cls-1" d="M601.62,60.66l-5.58-.8H32.21l-5.57.8v13.03h54.92c-3.41,1.17-7.55,2.69-12.2,4.63-8.26,3.47-12.94,5.43-18.47,9.11-4.9,3.27-12.29,8.31-17.87,17.62-2.56,4.27-6.28,10.48-6.13,18.98.15,7.83,3.51,13.48,5.87,17.36,5.69,9.29,13.48,15.46,24.17,21.7,8.27,4.83,16.15,8.46,39.66,16.94,5.58,2,18.3,6.67,43.75,16,12.1,4.43,24.55,9.16,31.83,19.66,4.65,6.7,4.73,12.22,4.72,13.49-.03,5.68-2.51,9.96-3.83,11.87-5.03,7.31-13.34,9.27-22.21,11.23-4.26.94-15.08,2.97-30.13,1.02-11.91-1.54-21.37-2.77-30.76-9.7-10.62-7.83-15.24-18.6-17.24-24.77H26.51c-.06,5.01.59,13.67,5.62,22.35,6.17,10.66,15.47,15.35,24.51,19.91,6.96,3.51,18.71,8.3,34.59,9.57H26.51v14.3h575.11v-14.55h-55.99c7.67-1.93,19.86-6.15,31.99-15.83,13.94-11.13,20.9-23.96,24-30.72l-11.53-8.88-10.01-7.72s-16.72,27.58-37.94,40.7c-6.98,4.32-14.45,7.06-21.97,6.75,0,0-16.29.78-30.06-8.19-.01,0-.01-.01-.02-.01-11.42-6.32-18.12-15.38-21.92-20.53-11.17-15.12-14.02-30.61-14.88-38.64-.09-.81-.21-1.61-.33-2.41-1.3-8.9-.67-20.38-.18-26.5.27-3.32.76-6.61,1.54-9.85,1.98-8.32,6.04-19.77,14.72-30.98,3.29-4.24,10.97-13.95,24.58-20.87,5.37-2.74,13.89-6.95,25.53-6.77,2.29.04,8,.29,14.81,2.62,11.11,3.8,17.73,10.59,26.8,20.11,5.42,5.68,12.4,13.82,19.35,24.63l21.51-16.59c-2.18-4.84-5.68-11.38-11.24-18.19-3.11-3.82-10.58-12.27-22.85-19.34-9.43-5.44-18.32-8.13-25.02-9.51h59.11v-13.03ZM401.87,223.69c-4.84,7.97-11.09,12.2-15.06,14.89-2.16,1.46-7.95,5.17-16.34,7.74-4.59,1.41-8.63,2.06-11.66,2.39h-134.39c2.75-1.46,9.82-5.68,14.13-14.39.68-1.37,3.33-6.97,3.32-14.72-.01-10.38-4.78-17.76-6.72-20.68-4.24-6.37-9.78-10.87-21.36-17.11-10.69-5.75-18.55-8.68-38.56-15.91-13.43-4.85-26.76-9.97-40.17-14.9-4.19-1.53-14.69-5.39-27.15-12.51-4.23-2.42-13.01-7.69-17.78-16.76-1.73-3.28-2.37-6-2.3-8.68.13-4.92,2.64-8.43,4.08-10.39,4.34-5.89,10.18-8.27,14.05-9.78,5.99-2.35,10.71-2.66,19.66-3.24,7.49-.48,13.49-.23,17.02,0,10.94.72,16.49,1.09,23.4,3.92,8.87,3.63,14.49,9.08,17.7,12.25,5.74,5.67,9.33,11.4,11.49,15.49l46,.09v-2.26s1.09-7.27-21.06-23.42h100.59c14.37.49,25.95,2.88,34.05,5.08,10.05,2.73,17.92,6.03,25.27,10.73,3.59,2.28,10.46,7.08,13.96,14.46,1.86,3.92,2.02,6.99,2.04,7.92.05,1.7-.12,4.31-1.61,8.08-2.42,6.11-6.39,10.43-9.62,13.45-7.66,7.17-16.17,11.67-22.67,14.43-.42.18-.29.79.16.81,5.05.16,11.52,1.07,18.42,3.99,4.25,1.8,14.15,6.15,20.86,16.69,2.17,3.41,5.84,9.18,5.61,17.1-.19,6.74-3.11,11.53-5.36,15.24ZM470.85,270.41h-62.89v-57.58c1.4,5.4,4.12,13.36,9.7,21.71,6.59,9.86,13.94,15.43,19.27,19.4,6.6,4.91,17.87,12.02,33.92,16.47ZM448.08,85.22c-14.65,8.89-23.09,19.81-26.72,25.02-8.09,11.61-11.67,22.75-13.36,29.79v-66.34h70.52c-7.83,1.42-18.86,4.5-30.44,11.53Z"/>
    </g>
  </g>
  <g id="Layer_4" data-name="Layer 4">
    <g>
      <path class="cls-2" d="M28.58,319.12c.25,2.99,2.03,5.32,5.79,5.32s5.52-1.58,5.52-5.12c0-3.09-1.4-4.7-5.91-6.53-4.88-1.97-7.14-3.83-7.14-7.73,0-3.51,2.66-6.5,7.72-6.5,5.86,0,7.5,3.63,7.6,6.69h-2.7c-.15-1.23-.62-4.69-5.04-4.69-3.4,0-4.83,1.99-4.83,4.29,0,2.84,1.51,4.18,5.65,5.86,5.59,2.27,7.46,4.57,7.46,8.43,0,4.31-2.78,7.3-8.41,7.3-6.12,0-8.2-3.41-8.47-7.32h2.75Z"/>
      <path class="cls-2" d="M68.33,312.24c0,9.03-2.78,14.23-10.65,14.23s-10.45-4.99-10.45-14.14,3.42-13.81,10.6-13.81c7.57,0,10.51,4.59,10.51,13.72ZM50.48,312.25c0,8.23,2.44,12.17,7.32,12.17s7.28-3.88,7.28-12.1-2.47-11.75-7.32-11.75-7.27,3.78-7.27,11.68Z"/>
      <path class="cls-2" d="M94.37,326.09v-27.2h3.56c9.75,20.22,10.99,22.67,11.41,23.8h.05c-.21-3.8-.28-7.92-.28-12.33v-11.47h2.64v27.2h-3.39c-10.14-21.16-11.25-23.51-11.6-24.52h-.05c.24,3.42.28,8.04.28,12.94v11.58h-2.61Z"/>
      <path class="cls-2" d="M117.3,298.89h6.98c7.4,0,10.91,4.34,10.91,12.83,0,9.25-3.12,14.37-11.48,14.37h-6.41v-27.2ZM120.13,324.06h3.41c6.65,0,8.72-4.35,8.72-12.21s-2.6-10.92-8.67-10.92h-3.46v23.13Z"/>
      <path class="cls-2" d="M147.59,298.89h8.18c4.72,0,7.76,2.37,7.76,6.52,0,3.73-2.22,5.27-4.21,5.83,2.6.7,5.35,2.65,5.35,6.89,0,4.8-3.45,7.96-9.2,7.96h-7.87v-27.2ZM154.58,310.41c4.38,0,6.13-1.65,6.13-4.79,0-2.85-1.85-4.75-5.57-4.75h-4.75v9.54h4.19ZM150.39,324.13h4.84c4.29,0,6.58-2.19,6.58-5.95s-2.6-5.81-7.3-5.81h-4.12v11.76Z"/>
      <path class="cls-2" d="M74.97,298.89v19.22c0,3.28,1.17,6.35,5.69,6.35s5.73-2.56,5.73-6.37v-19.19h2.72v19.24c0,4.97-2.08,8.38-8.54,8.38s-8.36-3.2-8.36-8.15v-19.47h2.76Z"/>
      <path class="cls-2" d="M171.14,299.3v19.22c0,3.28,1.17,6.35,5.69,6.35s5.73-2.56,5.73-6.37v-19.19h2.72v19.24c0,4.97-2.08,8.38-8.54,8.38s-8.36-3.2-8.36-8.15v-19.47h2.76Z"/>
      <path class="cls-2" d="M193.68,299.3v27.2h-2.72v-27.2h2.72Z"/>
      <path class="cls-2" d="M199.6,299.3h2.72v25.14h11.71l-.49,2.06h-13.94v-27.2Z"/>
      <path class="cls-2" d="M217.37,299.3h6.73c7.13,0,10.51,4.34,10.51,12.83,0,9.25-3.01,14.37-11.06,14.37h-6.18v-27.2ZM220.09,324.48h3.29c6.41,0,8.4-4.35,8.4-12.21s-2.5-10.92-8.35-10.92h-3.33v23.13Z"/>
      <path class="cls-2" d="M242.45,299.3v27.2h-2.72v-27.2h2.72Z"/>
      <path class="cls-2" d="M247.56,326.09v-27.2h3.56c9.75,20.22,10.99,22.67,11.41,23.8h.05c-.21-3.8-.28-7.92-.28-12.33v-11.47h2.64v27.2h-3.39c-10.14-21.16-11.25-23.51-11.6-24.52h-.05c.24,3.42.28,8.04.28,12.94v11.58h-2.61Z"/>
      <path class="cls-2" d="M280.92,312.12v3.11h5.82v3.48s-.2,3.46-3.3,4.93c-.04.02-.08.04-.12.06-.84.41-1.9.66-3.22.66-6.15,0-7.09-6.17-7.09-12.13,0-4.96.87-11.59,7.39-11.59,5.66,0,5.95,4.56,6.01,5.48h3.23c-.07-1.48-.48-7.6-9.17-7.6-8.16,0-10.78,6.14-10.78,13.72,0,6.26.58,14.23,10.3,14.23,8.59,0,9.62-6.11,9.79-7.76v-6.5l-8.86-.09Z"/>
      <path class="cls-2" d="M320.98,318.71c-.16,1.66-1.16,7.77-9.52,7.77-9.45,0-10.02-7.97-10.02-14.23,0-7.58,2.55-13.72,10.48-13.72,8.45,0,8.85,6.12,8.92,7.6h-3.14c-.06-.92-.34-5.48-5.84-5.48-6.35,0-7.18,6.63-7.18,11.59,0,5.97.91,12.14,6.89,12.14,5.21,0,6.1-4.16,6.26-5.66h3.15Z"/>
      <path class="cls-2" d="M344.97,312.24c0,9.03-2.78,14.23-10.65,14.23s-10.45-4.99-10.45-14.14,3.42-13.81,10.6-13.81c7.57,0,10.51,4.59,10.51,13.72ZM327.12,312.25c0,8.23,2.44,12.17,7.32,12.17s7.28-3.88,7.28-12.1-2.47-11.75-7.32-11.75-7.27,3.78-7.27,11.68Z"/>
      <path class="cls-2" d="M367.68,313.96c0-5.22.09-10.24.19-13.03h-.06c-1.18,4.53-4.45,16.63-7.14,25.16h-2.67c-2.02-7.21-5.45-20.26-6.66-25.21h-.11c.19,3.16.32,9.26.32,13.91v11.3h-2.56v-27.2h3.95c2.87,8.92,5.71,20.3,6.51,23.7h.05c.57-2.66,4.03-15.11,6.87-23.7h3.95v27.2h-2.65v-12.14Z"/>
      <path class="cls-2" d="M375.09,298.89h8.03c5.1,0,8.52,2.68,8.52,7.39s-3.07,7.8-9.08,7.8h-4.67v12.01h-2.79v-27.2ZM377.89,312.06h4.39c4.23,0,6.49-1.88,6.49-5.8,0-3.11-1.99-5.35-6.03-5.35h-4.85v11.15Z"/>
      <path class="cls-2" d="M415.95,312.24c0,9.03-2.78,14.23-10.65,14.23s-10.45-4.99-10.45-14.14,3.42-13.81,10.6-13.81c7.57,0,10.51,4.59,10.51,13.72ZM398.1,312.25c0,8.23,2.44,12.17,7.32,12.17s7.28-3.88,7.28-12.1-2.47-11.75-7.32-11.75-7.27,3.78-7.27,11.68Z"/>
      <path class="cls-2" d="M419.29,326.09v-27.2h3.56c9.75,20.22,10.99,22.67,11.41,23.8h.05c-.21-3.8-.28-7.92-.28-12.33v-11.47h2.64v27.2h-3.39c-10.14-21.16-11.25-23.51-11.6-24.52h-.05c.24,3.42.28,8.04.28,12.94v11.58h-2.61Z"/>
      <path class="cls-2" d="M456.59,312.68h-11.54v11.34h12.76l-.42,2.07h-15.19v-27.2h14.97v2.08h-12.12v9.64h11.54v2.07Z"/>
      <path class="cls-2" d="M462.82,326.09v-27.2h3.56c9.75,20.22,10.99,22.67,11.41,23.8h.05c-.21-3.8-.29-7.92-.29-12.33v-11.47h2.64v27.2h-3.39c-10.14-21.16-11.25-23.51-11.6-24.52h-.05c.24,3.42.28,8.04.28,12.94v11.58h-2.61Z"/>
      <path class="cls-2" d="M489.99,300.97h-6.97v-2.08h16.54v2.08h-6.97v25.12h-2.59v-25.12Z"/>
      <path class="cls-2" d="M505.72,319.12c.25,2.99,2.03,5.32,5.79,5.32s5.52-1.58,5.52-5.12c0-3.09-1.4-4.7-5.91-6.53-4.88-1.97-7.14-3.83-7.14-7.73,0-3.51,2.66-6.5,7.72-6.5,5.86,0,7.5,3.63,7.6,6.69h-2.7c-.15-1.23-.62-4.69-5.04-4.69-3.4,0-4.83,1.99-4.83,4.29,0,2.84,1.51,4.18,5.65,5.86,5.59,2.27,7.46,4.57,7.46,8.43,0,4.31-2.78,7.3-8.41,7.3-6.12,0-8.2-3.41-8.47-7.32h2.75Z"/>
      <path class="cls-2" d="M544.41,299.3v27.2h-2.72v-27.2h2.72Z"/>
      <path class="cls-2" d="M549.97,326.09v-27.2h3.56c9.75,20.22,10.99,22.67,11.41,23.8h.05c-.21-3.8-.28-7.92-.28-12.33v-11.47h2.64v27.2h-3.39c-10.14-21.16-11.25-23.51-11.6-24.52h-.05c.24,3.42.28,8.04.28,12.94v11.58h-2.61Z"/>
      <path class="cls-2" d="M590.85,318.71c-.16,1.66-1.16,7.77-9.52,7.77-9.45,0-10.02-7.97-10.02-14.23,0-7.58,2.55-13.72,10.48-13.72,8.45,0,8.85,6.12,8.92,7.6h-3.14c-.06-.92-.34-5.48-5.84-5.48-6.35,0-7.18,6.63-7.18,11.59,0,5.97.91,12.14,6.89,12.14,5.21,0,6.1-4.16,6.26-5.66h3.15Z"/>
      <path class="cls-2" d="M595.08,326.12v-3.9h3.03v3.9h-3.03Z"/>
      <path class="cls-2" d="M524.61,326.12v-3.9h3.03v3.9h-3.03Z"/>
      <polygon class="cls-2" points="526.96 324.94 527.64 326.12 527.3 329.41 525.74 329.24 525.74 325.47 526.96 324.94"/>
    </g>
  </g>
  <g id="Layer_3" data-name="Layer 3">
    <g>
      <path class="cls-2" d="M128.32,366.84v-4.38h5.67v4.38h-5.67Z"/>
      <path class="cls-2" d="M31.44,346.27c2.38,9.29,3.37,13.33,3.83,16.06h.1c.51-2.73,1.73-5.83,4.72-16.06h5.42c2.65,8.75,4.14,13.64,4.52,16h.06c.42-2.18,1.17-5.35,4.04-16h5.94l-7.2,20.56h-6.05c-1.89-6.42-3.6-11.88-4.2-14.92h-.06c-.53,2.97-2.44,8.34-4.58,14.92h-6.21l-6.64-20.56h6.31Z"/>
      <path class="cls-2" d="M64.29,346.27c2.38,9.29,3.37,13.33,3.83,16.06h.1c.51-2.73,1.73-5.83,4.72-16.06h5.42c2.65,8.75,4.14,13.64,4.52,16h.06c.42-2.18,1.17-5.35,4.04-16h5.94l-7.2,20.56h-6.05c-1.89-6.42-3.6-11.88-4.2-14.92h-.06c-.53,2.97-2.44,8.34-4.58,14.92h-6.21l-6.64-20.56h6.31Z"/>
      <path class="cls-2" d="M97.48,346.27c2.38,9.29,3.37,13.33,3.83,16.06h.1c.51-2.73,1.73-5.83,4.72-16.06h5.42c2.65,8.75,4.14,13.64,4.52,16h.06c.42-2.18,1.17-5.35,4.04-16h5.94l-7.2,20.56h-6.05c-1.89-6.42-3.6-11.88-4.2-14.92h-.06c-.53,2.97-2.44,8.34-4.58,14.92h-6.21l-6.64-20.56h6.31Z"/>
      <path class="cls-2" d="M146.61,359.61c.37,2.69,2.53,4.87,7.48,4.87s7.02-1.54,7.02-4.46c0-2.73-1.97-4.21-8.22-5.97-7.43-2.06-10.63-3.96-10.63-7.91s4.23-6.83,11.99-6.83c9.28,0,11.74,3.83,11.88,7.08h-5.64c-.24-1.36-.92-4.33-6.42-4.33-4.26,0-6.08,1.69-6.08,3.8,0,2.48,1.9,3.64,7.67,5.24,8.19,2.26,11.32,4.51,11.32,8.65s-4.23,7.49-13.05,7.49c-9.6,0-12.71-3.64-13.06-7.61h5.74Z"/>
      <path class="cls-2" d="M193.19,356.42c0,7.21-3.84,10.78-11.12,10.78s-11.07-3.44-11.07-10.71,4.37-10.37,11.3-10.37,10.88,3.46,10.88,10.29ZM176.2,356.5c0,5.31,1.95,7.89,5.95,7.89s5.84-2.6,5.84-7.9-1.84-7.53-5.87-7.53-5.92,2.25-5.92,7.54Z"/>
      <path class="cls-2" d="M218.16,361.17c0,2.64,0,4.66.06,5.65h-4.76c-.15-.6-.21-1.42-.24-2.62-1.16,1.99-3.69,2.98-7.27,2.98s-7.75-1.06-7.75-6.09v-14.63h5.03v13.87c0,2.49,1.01,3.98,4.38,3.98s5.53-1.29,5.53-5.47v-12.38h5.03v14.71Z"/>
      <path class="cls-2" d="M224.29,352.77c0-4.17-.03-5.34-.06-6.3h4.82c.09.5.18,1.31.18,2.56,1.01-1.5,3.1-2.92,7.24-2.92,4.6,0,7.96,1.76,7.96,6.21v14.51h-5.02v-13.83c0-2.4-1.12-3.99-4.52-3.99-3.9,0-5.58,1.65-5.58,5.61v12.21h-5.02v-14.06Z"/>
      <path class="cls-2" d="M269.86,338.37v23.15c0,2.06,0,4.11.06,5.31h-4.69c-.09-.52-.17-1.8-.17-2.62-.92,1.71-2.82,2.99-7.01,2.99-6.29,0-8.93-3.65-8.93-10.74,0-6.45,3.45-10.31,9.92-10.31,3.78,0,5.31,1.07,5.97,2.02v-9.78h4.86ZM254.09,356.48c0,5.65,1.84,7.83,5.39,7.83,4.47,0,5.63-2.54,5.63-7.95,0-5.7-1.09-7.36-5.3-7.36-3.43,0-5.72,2-5.72,7.48Z"/>
      <path class="cls-2" d="M295.29,352.09c2.63-.56,5.54-2.15,5.54-5.75,0-4.19-4.22-6.65-11.25-6.65h-12.26v27.14h11.94c7.95,0,13.03-3.02,13.03-7.96,0-4.17-3.59-6.04-7-6.78ZM282.41,342.43h5.98c4.63,0,6.98,1.57,6.98,4.22,0,2.81-1.95,4.26-7.55,4.26h-5.41v-8.48ZM296.53,359.98c-.67,2.6-6.37,2.56-6.37,2.56h-7.75v-8.93h5.37c5.98,0,8.87,1.78,8.87,5.25,0,.39-.05.76-.12,1.12Z"/>
      <path class="cls-2" d="M326.98,361.17c0,2.64,0,4.66.06,5.65h-4.64c-.15-.6-.21-1.42-.23-2.62-1.13,1.99-3.59,2.98-7.09,2.98s-7.56-1.06-7.56-6.09v-14.63h4.9v13.87c0,2.49.99,3.98,4.27,3.98s5.39-1.29,5.39-5.47v-12.38h4.9v14.71Z"/>
      <path class="cls-2" d="M333.04,346.47h5.12v20.36h-5.12v-20.36ZM333.07,338.37h5.12v4.29h-5.12v-4.29Z"/>
      <path class="cls-2" d="M343.59,366.83v-28.46h4.29v28.46h-4.29Z"/>
      <path class="cls-2" d="M373.36,338.37v23.15c0,2.06,0,4.11.06,5.31h-4.78c-.09-.52-.18-1.8-.18-2.62-.94,1.71-2.88,2.99-7.14,2.99-6.41,0-9.1-3.65-9.1-10.74,0-6.45,3.51-10.31,10.11-10.31,3.85,0,5.42,1.07,6.09,2.02v-9.78h4.95ZM357.29,356.48c0,5.65,1.87,7.83,5.49,7.83,4.55,0,5.74-2.54,5.74-7.95,0-5.7-1.11-7.36-5.41-7.36-3.5,0-5.83,2-5.83,7.48Z"/>
      <path class="cls-2" d="M379.17,346.47h5.12v20.36h-5.12v-20.36ZM379.2,338.37h5.12v4.29h-5.12v-4.29Z"/>
      <path class="cls-2" d="M390.06,352.77c0-4.17-.03-5.34-.06-6.3h4.82c.09.5.18,1.31.18,2.56,1.01-1.5,3.1-2.92,7.24-2.92,4.6,0,7.96,1.76,7.96,6.21v14.51h-5.02v-13.83c0-2.4-1.12-3.99-4.52-3.99-3.9,0-5.58,1.65-5.58,5.61v12.21h-5.02v-14.06Z"/>
      <path class="cls-2" d="M436.21,364.28c0,5.23-2.08,8.81-11.06,8.81-8.16,0-9.91-3.29-10.09-5.46h5.03c.12.98,1,2.8,5.24,2.8,4.95,0,5.95-2.3,5.95-6.15v-1.62c-1.12,1.92-3.69,2.87-7.1,2.87-6.32,0-9.35-3.42-9.35-9.51,0-6.99,4.07-10.37,10.02-10.37,4.17,0,5.88,1.28,6.43,2.47,0-.81.15-1.72.24-2.14h4.79c-.06,1.06-.09,3.04-.09,5.71v12.59ZM419.96,355.94c0,4.62,1.96,6.83,5.63,6.83,4.57,0,5.77-2.84,5.77-7.34s-.85-7.02-5.42-7.02c-3.9,0-5.98,2.56-5.98,7.53Z"/>
      <path class="cls-2" d="M447.71,339.68v27.14h-4.37v-27.14h4.37Z"/>
      <path class="cls-2" d="M454.59,352.77c0-4.17-.03-5.34-.06-6.3h4.82c.09.5.18,1.31.18,2.56,1.01-1.5,3.1-2.92,7.24-2.92,4.6,0,7.96,1.76,7.96,6.21v14.51h-5.02v-13.83c0-2.4-1.12-3.99-4.52-3.99-3.9,0-5.58,1.65-5.58,5.61v12.21h-5.02v-14.06Z"/>
      <path class="cls-2" d="M501.02,360.48c-.13,1.19-.8,6.71-10.42,6.71-8.56,0-10.82-4.69-10.82-10.63s2.91-10.45,11.23-10.45c9.56,0,9.98,5.52,10.01,6.54h-5.27c-.06-.82-.44-3.74-4.77-3.74s-5.94,3.03-5.94,7.65c0,4.93,1.61,7.84,5.73,7.84,4.42,0,4.92-2.82,5.14-3.91h5.1Z"/>
      <path class="cls-2" d="M504.83,366.84v-4.16h5.18v4.16h-5.18Z"/>
      <path class="cls-2" d="M537.53,360.48c-.13,1.19-.8,6.71-10.42,6.71-8.56,0-10.82-4.69-10.82-10.63s2.91-10.45,11.23-10.45c9.56,0,9.98,5.52,10.01,6.54h-5.27c-.06-.82-.44-3.74-4.77-3.74s-5.94,3.03-5.94,7.65c0,4.93,1.61,7.84,5.73,7.84,4.42,0,4.91-2.82,5.14-3.91h5.1Z"/>
      <path class="cls-2" d="M562.47,356.42c0,7.21-3.84,10.78-11.12,10.78s-11.07-3.44-11.07-10.71,4.37-10.37,11.3-10.37,10.88,3.46,10.88,10.29ZM545.48,356.5c0,5.31,1.95,7.89,5.95,7.89s5.84-2.6,5.84-7.9-1.84-7.53-5.87-7.53-5.92,2.25-5.92,7.54Z"/>
      <path class="cls-2" d="M566.99,352.58c0-3.7,0-5.16-.06-6.11h4.83c.12.56.18,1.62.18,2.5,1.27-1.73,3.5-2.84,6.97-2.84s5.5.93,6.45,2.98c1.15-1.6,3.5-2.98,7.59-2.98s7.63,1.28,7.63,5.95v14.75h-4.98v-14.21c0-1.97-.9-3.62-4.2-3.62-3.77,0-5.06,2.13-5.06,4.83v13h-5.01v-14.12c0-2.39-1.22-3.68-4.14-3.68-3.57,0-5.19,2.04-5.19,5.06v12.75h-5.01v-14.25Z"/>
    </g>
  </g>
</svg>