<?xml version="1.0" encoding="UTF-8" standalone="no"?>
<svg
   viewBox="0 0 999.99998 599.18768"
   version="1.1"
   id="svg278"
   sodipodi:docname="SBC2.svg"
   inkscape:version="1.2 (dc2aedaf03, 2022-05-15)"
   inkscape:export-filename="SBC2.png"
   inkscape:export-xdpi="96"
   inkscape:export-ydpi="96"
   width="1000"
   height="599.18768"
   xmlns:inkscape="http://www.inkscape.org/namespaces/inkscape"
   xmlns:sodipodi="http://sodipodi.sourceforge.net/DTD/sodipodi-0.dtd"
   xmlns="http://www.w3.org/2000/svg"
   xmlns:svg="http://www.w3.org/2000/svg">
  <sodipodi:namedview
     id="namedview280"
     pagecolor="#505050"
     bordercolor="#eeeeee"
     borderopacity="1"
     inkscape:showpageshadow="0"
     inkscape:pageopacity="0"
     inkscape:pagecheckerboard="0"
     inkscape:deskcolor="#505050"
     showgrid="false"
     inkscape:zoom="0.69105714"
     inkscape:cx="118.65878"
     inkscape:cy="316.90578"
     inkscape:window-width="2560"
     inkscape:window-height="1009"
     inkscape:window-x="2552"
     inkscape:window-y="-8"
     inkscape:window-maximized="1"
     inkscape:current-layer="svg278" />
  <defs
     id="defs144">
    <style
       id="style142">
      .cls-1 {
        fill: #319e74;
      }

      .cls-2 {
        fill: #0048b3;
      }
    </style>
  </defs>
  <rect
     style="fill:#ffffff;fill-opacity:1;stroke:#ff0101;stroke-width:2.44086;stroke-opacity:0"
     id="rect561"
     width="997.55914"
     height="596.74683"
     x="1.22043"
     y="1.22043" />
  <g
     id="Layer_1"
     data-name="Layer 1"
     transform="matrix(1.5891066,0,0,1.5891066,0.40762155,1.220472)">
    <g
       id="g154">
      <path
         class="cls-2"
         d="M 314.13,12.03 0,57.09 v 7.4 l 26.64,-3.83 5.57,-0.8 281.92,-40.6 281.91,40.6 5.58,0.8 26.63,3.83 v -7.4 z"
         id="path146" />
      <polygon
         class="cls-2"
         points="314.13,7.23 628.26,52.47 628.26,45.06 314.13,0 0,45.06 0,52.47 "
         id="polygon148" />
      <rect
         class="cls-2"
         x="26.51"
         y="289.23999"
         width="575.10999"
         height="4.3800001"
         id="rect150" />
      <rect
         class="cls-2"
         x="26.51"
         y="329.87"
         width="575.10999"
         height="4.6100001"
         id="rect152" />
    </g>
  </g>
  <g
     id="Layer_2"
     data-name="Layer 2"
     transform="matrix(1.5891066,0,0,1.5891066,0.40762155,1.220472)">
    <g
       id="g163">
      <path
         class="cls-1"
         d="m 328.68,158.32 c 3.75,-2.08 8.47,-4.78 11.75,-10.46 0.88,-1.53 3.27,-5.8 3.19,-11.75 -0.1,-6.68 -3.26,-11.32 -4.72,-13.4 -3.93,-5.59 -8.9,-8.08 -12.64,-9.96 -3.08,-1.54 -8.21,-3.65 -15.07,-4.34 h -42.51 v 55.15 h 40.34 c 4.77,-0.12 12.13,-1.04 19.66,-5.24 z"
         id="path157" />
      <path
         class="cls-1"
         d="m 340.68,184.49 c -8.88,-7.39 -18.72,-8.46 -22.46,-8.68 h -49.66 v 57.96 h 51.7 c 3.63,-0.23 12.2,-1.27 20.17,-7.53 3.18,-2.5 12.33,-9.68 12.38,-20.81 0.05,-10.79 -8.49,-17.91 -12.13,-20.94 z"
         id="path159" />
      <path
         class="cls-1"
         d="m 601.62,60.66 -5.58,-0.8 H 32.21 l -5.57,0.8 v 13.03 h 54.92 c -3.41,1.17 -7.55,2.69 -12.2,4.63 -8.26,3.47 -12.94,5.43 -18.47,9.11 -4.9,3.27 -12.29,8.31 -17.87,17.62 -2.56,4.27 -6.28,10.48 -6.13,18.98 0.15,7.83 3.51,13.48 5.87,17.36 5.69,9.29 13.48,15.46 24.17,21.7 8.27,4.83 16.15,8.46 39.66,16.94 5.58,2 18.3,6.67 43.75,16 12.1,4.43 24.55,9.16 31.83,19.66 4.65,6.7 4.73,12.22 4.72,13.49 -0.03,5.68 -2.51,9.96 -3.83,11.87 -5.03,7.31 -13.34,9.27 -22.21,11.23 -4.26,0.94 -15.08,2.97 -30.13,1.02 -11.91,-1.54 -21.37,-2.77 -30.76,-9.7 C 79.34,235.77 74.72,225 72.72,218.83 H 26.51 c -0.06,5.01 0.59,13.67 5.62,22.35 6.17,10.66 15.47,15.35 24.51,19.91 6.96,3.51 18.71,8.3 34.59,9.57 H 26.51 v 14.3 h 575.11 v -14.55 h -55.99 c 7.67,-1.93 19.86,-6.15 31.99,-15.83 13.94,-11.13 20.9,-23.96 24,-30.72 l -11.53,-8.88 -10.01,-7.72 c 0,0 -16.72,27.58 -37.94,40.7 -6.98,4.32 -14.45,7.06 -21.97,6.75 0,0 -16.29,0.78 -30.06,-8.19 -0.01,0 -0.01,-0.01 -0.02,-0.01 -11.42,-6.32 -18.12,-15.38 -21.92,-20.53 -11.17,-15.12 -14.02,-30.61 -14.88,-38.64 -0.09,-0.81 -0.21,-1.61 -0.33,-2.41 -1.3,-8.9 -0.67,-20.38 -0.18,-26.5 0.27,-3.32 0.76,-6.61 1.54,-9.85 1.98,-8.32 6.04,-19.77 14.72,-30.98 3.29,-4.24 10.97,-13.95 24.58,-20.87 5.37,-2.74 13.89,-6.95 25.53,-6.77 2.29,0.04 8,0.29 14.81,2.62 11.11,3.8 17.73,10.59 26.8,20.11 5.42,5.68 12.4,13.82 19.35,24.63 l 21.51,-16.59 c -2.18,-4.84 -5.68,-11.38 -11.24,-18.19 C 587.27,98.72 579.8,90.27 567.53,83.2 558.1,77.76 549.21,75.07 542.51,73.69 h 59.11 z M 401.87,223.69 c -4.84,7.97 -11.09,12.2 -15.06,14.89 -2.16,1.46 -7.95,5.17 -16.34,7.74 -4.59,1.41 -8.63,2.06 -11.66,2.39 H 224.42 c 2.75,-1.46 9.82,-5.68 14.13,-14.39 0.68,-1.37 3.33,-6.97 3.32,-14.72 -0.01,-10.38 -4.78,-17.76 -6.72,-20.68 -4.24,-6.37 -9.78,-10.87 -21.36,-17.11 -10.69,-5.75 -18.55,-8.68 -38.56,-15.91 -13.43,-4.85 -26.76,-9.97 -40.17,-14.9 -4.19,-1.53 -14.69,-5.39 -27.15,-12.51 -4.23,-2.42 -13.01,-7.69 -17.78,-16.76 -1.73,-3.28 -2.37,-6 -2.3,-8.68 0.13,-4.92 2.64,-8.43 4.08,-10.39 4.34,-5.89 10.18,-8.27 14.05,-9.78 5.99,-2.35 10.71,-2.66 19.66,-3.24 7.49,-0.48 13.49,-0.23 17.02,0 10.94,0.72 16.49,1.09 23.4,3.92 8.87,3.63 14.49,9.08 17.7,12.25 5.74,5.67 9.33,11.4 11.49,15.49 l 46,0.09 v -2.26 c 0,0 1.09,-7.27 -21.06,-23.42 h 100.59 c 14.37,0.49 25.95,2.88 34.05,5.08 10.05,2.73 17.92,6.03 25.27,10.73 3.59,2.28 10.46,7.08 13.96,14.46 1.86,3.92 2.02,6.99 2.04,7.92 0.05,1.7 -0.12,4.31 -1.61,8.08 -2.42,6.11 -6.39,10.43 -9.62,13.45 -7.66,7.17 -16.17,11.67 -22.67,14.43 -0.42,0.18 -0.29,0.79 0.16,0.81 5.05,0.16 11.52,1.07 18.42,3.99 4.25,1.8 14.15,6.15 20.86,16.69 2.17,3.41 5.84,9.18 5.61,17.1 -0.19,6.74 -3.11,11.53 -5.36,15.24 z m 68.98,46.72 h -62.89 v -57.58 c 1.4,5.4 4.12,13.36 9.7,21.71 6.59,9.86 13.94,15.43 19.27,19.4 6.6,4.91 17.87,12.02 33.92,16.47 z M 448.08,85.22 c -14.65,8.89 -23.09,19.81 -26.72,25.02 -8.09,11.61 -11.67,22.75 -13.36,29.79 V 73.69 h 70.52 c -7.83,1.42 -18.86,4.5 -30.44,11.53 z"
         id="path161" />
    </g>
  </g>
  <g
     id="Layer_4"
     data-name="Layer 4"
     transform="matrix(1.5891066,0,0,1.5891066,0.40762155,1.220472)">
    <g
       id="g224">
      <path
         class="cls-2"
         d="m 28.58,319.12 c 0.25,2.99 2.03,5.32 5.79,5.32 3.76,0 5.52,-1.58 5.52,-5.12 0,-3.09 -1.4,-4.7 -5.91,-6.53 -4.88,-1.97 -7.14,-3.83 -7.14,-7.73 0,-3.51 2.66,-6.5 7.72,-6.5 5.86,0 7.5,3.63 7.6,6.69 h -2.7 c -0.15,-1.23 -0.62,-4.69 -5.04,-4.69 -3.4,0 -4.83,1.99 -4.83,4.29 0,2.84 1.51,4.18 5.65,5.86 5.59,2.27 7.46,4.57 7.46,8.43 0,4.31 -2.78,7.3 -8.41,7.3 -6.12,0 -8.2,-3.41 -8.47,-7.32 h 2.75 z"
         id="path166" />
      <path
         class="cls-2"
         d="m 68.33,312.24 c 0,9.03 -2.78,14.23 -10.65,14.23 -7.87,0 -10.45,-4.99 -10.45,-14.14 0,-9.15 3.42,-13.81 10.6,-13.81 7.57,0 10.51,4.59 10.51,13.72 z m -17.85,0.01 c 0,8.23 2.44,12.17 7.32,12.17 4.88,0 7.28,-3.88 7.28,-12.1 0,-8.22 -2.47,-11.75 -7.32,-11.75 -4.85,0 -7.27,3.78 -7.27,11.68 z"
         id="path168" />
      <path
         class="cls-2"
         d="m 94.37,326.09 v -27.2 h 3.56 c 9.75,20.22 10.99,22.67 11.41,23.8 h 0.05 c -0.21,-3.8 -0.28,-7.92 -0.28,-12.33 v -11.47 h 2.64 v 27.2 h -3.39 C 98.22,304.93 97.11,302.58 96.76,301.57 h -0.05 c 0.24,3.42 0.28,8.04 0.28,12.94 v 11.58 h -2.61 z"
         id="path170" />
      <path
         class="cls-2"
         d="m 117.3,298.89 h 6.98 c 7.4,0 10.91,4.34 10.91,12.83 0,9.25 -3.12,14.37 -11.48,14.37 h -6.41 z m 2.83,25.17 h 3.41 c 6.65,0 8.72,-4.35 8.72,-12.21 0,-7.86 -2.6,-10.92 -8.67,-10.92 h -3.46 z"
         id="path172" />
      <path
         class="cls-2"
         d="m 147.59,298.89 h 8.18 c 4.72,0 7.76,2.37 7.76,6.52 0,3.73 -2.22,5.27 -4.21,5.83 2.6,0.7 5.35,2.65 5.35,6.89 0,4.8 -3.45,7.96 -9.2,7.96 h -7.87 v -27.2 z m 6.99,11.52 c 4.38,0 6.13,-1.65 6.13,-4.79 0,-2.85 -1.85,-4.75 -5.57,-4.75 h -4.75 v 9.54 z m -4.19,13.72 h 4.84 c 4.29,0 6.58,-2.19 6.58,-5.95 0,-3.76 -2.6,-5.81 -7.3,-5.81 h -4.12 z"
         id="path174" />
      <path
         class="cls-2"
         d="m 74.97,298.89 v 19.22 c 0,3.28 1.17,6.35 5.69,6.35 4.52,0 5.73,-2.56 5.73,-6.37 V 298.9 h 2.72 v 19.24 c 0,4.97 -2.08,8.38 -8.54,8.38 -6.46,0 -8.36,-3.2 -8.36,-8.15 V 298.9 h 2.76 z"
         id="path176" />
      <path
         class="cls-2"
         d="m 171.14,299.3 v 19.22 c 0,3.28 1.17,6.35 5.69,6.35 4.52,0 5.73,-2.56 5.73,-6.37 v -19.19 h 2.72 v 19.24 c 0,4.97 -2.08,8.38 -8.54,8.38 -6.46,0 -8.36,-3.2 -8.36,-8.15 v -19.47 h 2.76 z"
         id="path178" />
      <path
         class="cls-2"
         d="m 193.68,299.3 v 27.2 h -2.72 v -27.2 z"
         id="path180" />
      <path
         class="cls-2"
         d="m 199.6,299.3 h 2.72 v 25.14 h 11.71 l -0.49,2.06 H 199.6 Z"
         id="path182" />
      <path
         class="cls-2"
         d="m 217.37,299.3 h 6.73 c 7.13,0 10.51,4.34 10.51,12.83 0,9.25 -3.01,14.37 -11.06,14.37 h -6.18 z m 2.72,25.18 h 3.29 c 6.41,0 8.4,-4.35 8.4,-12.21 0,-7.86 -2.5,-10.92 -8.35,-10.92 h -3.33 v 23.13 z"
         id="path184" />
      <path
         class="cls-2"
         d="m 242.45,299.3 v 27.2 h -2.72 v -27.2 z"
         id="path186" />
      <path
         class="cls-2"
         d="m 247.56,326.09 v -27.2 h 3.56 c 9.75,20.22 10.99,22.67 11.41,23.8 h 0.05 c -0.21,-3.8 -0.28,-7.92 -0.28,-12.33 v -11.47 h 2.64 v 27.2 h -3.39 c -10.14,-21.16 -11.25,-23.51 -11.6,-24.52 h -0.05 c 0.24,3.42 0.28,8.04 0.28,12.94 v 11.58 h -2.61 z"
         id="path188" />
      <path
         class="cls-2"
         d="m 280.92,312.12 v 3.11 h 5.82 v 3.48 c 0,0 -0.2,3.46 -3.3,4.93 -0.04,0.02 -0.08,0.04 -0.12,0.06 -0.84,0.41 -1.9,0.66 -3.22,0.66 -6.15,0 -7.09,-6.17 -7.09,-12.13 0,-4.96 0.87,-11.59 7.39,-11.59 5.66,0 5.95,4.56 6.01,5.48 h 3.23 c -0.07,-1.48 -0.48,-7.6 -9.17,-7.6 -8.16,0 -10.78,6.14 -10.78,13.72 0,6.26 0.58,14.23 10.3,14.23 8.59,0 9.62,-6.11 9.79,-7.76 v -6.5 z"
         id="path190" />
      <path
         class="cls-2"
         d="m 320.98,318.71 c -0.16,1.66 -1.16,7.77 -9.52,7.77 -9.45,0 -10.02,-7.97 -10.02,-14.23 0,-7.58 2.55,-13.72 10.48,-13.72 8.45,0 8.85,6.12 8.92,7.6 h -3.14 c -0.06,-0.92 -0.34,-5.48 -5.84,-5.48 -6.35,0 -7.18,6.63 -7.18,11.59 0,5.97 0.91,12.14 6.89,12.14 5.21,0 6.1,-4.16 6.26,-5.66 h 3.15 z"
         id="path192" />
      <path
         class="cls-2"
         d="m 344.97,312.24 c 0,9.03 -2.78,14.23 -10.65,14.23 -7.87,0 -10.45,-4.99 -10.45,-14.14 0,-9.15 3.42,-13.81 10.6,-13.81 7.57,0 10.51,4.59 10.51,13.72 z m -17.85,0.01 c 0,8.23 2.44,12.17 7.32,12.17 4.88,0 7.28,-3.88 7.28,-12.1 0,-8.22 -2.47,-11.75 -7.32,-11.75 -4.85,0 -7.27,3.78 -7.27,11.68 z"
         id="path194" />
      <path
         class="cls-2"
         d="m 367.68,313.96 c 0,-5.22 0.09,-10.24 0.19,-13.03 h -0.06 c -1.18,4.53 -4.45,16.63 -7.14,25.16 H 358 c -2.02,-7.21 -5.45,-20.26 -6.66,-25.21 h -0.11 c 0.19,3.16 0.32,9.26 0.32,13.91 v 11.3 h -2.56 v -27.2 h 3.95 c 2.87,8.92 5.71,20.3 6.51,23.7 h 0.05 c 0.57,-2.66 4.03,-15.11 6.87,-23.7 h 3.95 v 27.2 h -2.65 v -12.14 z"
         id="path196" />
      <path
         class="cls-2"
         d="m 375.09,298.89 h 8.03 c 5.1,0 8.52,2.68 8.52,7.39 0,4.71 -3.07,7.8 -9.08,7.8 h -4.67 v 12.01 h -2.79 v -27.2 z m 2.8,13.17 h 4.39 c 4.23,0 6.49,-1.88 6.49,-5.8 0,-3.11 -1.99,-5.35 -6.03,-5.35 h -4.85 z"
         id="path198" />
      <path
         class="cls-2"
         d="m 415.95,312.24 c 0,9.03 -2.78,14.23 -10.65,14.23 -7.87,0 -10.45,-4.99 -10.45,-14.14 0,-9.15 3.42,-13.81 10.6,-13.81 7.57,0 10.51,4.59 10.51,13.72 z m -17.85,0.01 c 0,8.23 2.44,12.17 7.32,12.17 4.88,0 7.28,-3.88 7.28,-12.1 0,-8.22 -2.47,-11.75 -7.32,-11.75 -4.85,0 -7.27,3.78 -7.27,11.68 z"
         id="path200" />
      <path
         class="cls-2"
         d="m 419.29,326.09 v -27.2 h 3.56 c 9.75,20.22 10.99,22.67 11.41,23.8 h 0.05 c -0.21,-3.8 -0.28,-7.92 -0.28,-12.33 v -11.47 h 2.64 v 27.2 h -3.39 c -10.14,-21.16 -11.25,-23.51 -11.6,-24.52 h -0.05 c 0.24,3.42 0.28,8.04 0.28,12.94 v 11.58 h -2.61 z"
         id="path202" />
      <path
         class="cls-2"
         d="m 456.59,312.68 h -11.54 v 11.34 h 12.76 l -0.42,2.07 H 442.2 v -27.2 h 14.97 v 2.08 h -12.12 v 9.64 h 11.54 z"
         id="path204" />
      <path
         class="cls-2"
         d="m 462.82,326.09 v -27.2 h 3.56 c 9.75,20.22 10.99,22.67 11.41,23.8 h 0.05 c -0.21,-3.8 -0.29,-7.92 -0.29,-12.33 v -11.47 h 2.64 v 27.2 h -3.39 c -10.14,-21.16 -11.25,-23.51 -11.6,-24.52 h -0.05 c 0.24,3.42 0.28,8.04 0.28,12.94 v 11.58 z"
         id="path206" />
      <path
         class="cls-2"
         d="m 489.99,300.97 h -6.97 v -2.08 h 16.54 v 2.08 h -6.97 v 25.12 H 490 v -25.12 z"
         id="path208" />
      <path
         class="cls-2"
         d="m 505.72,319.12 c 0.25,2.99 2.03,5.32 5.79,5.32 3.76,0 5.52,-1.58 5.52,-5.12 0,-3.09 -1.4,-4.7 -5.91,-6.53 -4.88,-1.97 -7.14,-3.83 -7.14,-7.73 0,-3.51 2.66,-6.5 7.72,-6.5 5.86,0 7.5,3.63 7.6,6.69 h -2.7 c -0.15,-1.23 -0.62,-4.69 -5.04,-4.69 -3.4,0 -4.83,1.99 -4.83,4.29 0,2.84 1.51,4.18 5.65,5.86 5.59,2.27 7.46,4.57 7.46,8.43 0,4.31 -2.78,7.3 -8.41,7.3 -6.12,0 -8.2,-3.41 -8.47,-7.32 h 2.75 z"
         id="path210" />
      <path
         class="cls-2"
         d="m 544.41,299.3 v 27.2 h -2.72 v -27.2 z"
         id="path212" />
      <path
         class="cls-2"
         d="m 549.97,326.09 v -27.2 h 3.56 c 9.75,20.22 10.99,22.67 11.41,23.8 h 0.05 c -0.21,-3.8 -0.28,-7.92 -0.28,-12.33 v -11.47 h 2.64 v 27.2 h -3.39 c -10.14,-21.16 -11.25,-23.51 -11.6,-24.52 h -0.05 c 0.24,3.42 0.28,8.04 0.28,12.94 v 11.58 h -2.61 z"
         id="path214" />
      <path
         class="cls-2"
         d="m 590.85,318.71 c -0.16,1.66 -1.16,7.77 -9.52,7.77 -9.45,0 -10.02,-7.97 -10.02,-14.23 0,-7.58 2.55,-13.72 10.48,-13.72 8.45,0 8.85,6.12 8.92,7.6 h -3.14 c -0.06,-0.92 -0.34,-5.48 -5.84,-5.48 -6.35,0 -7.18,6.63 -7.18,11.59 0,5.97 0.91,12.14 6.89,12.14 5.21,0 6.1,-4.16 6.26,-5.66 h 3.15 z"
         id="path216" />
      <path
         class="cls-2"
         d="m 595.08,326.12 v -3.9 h 3.03 v 3.9 z"
         id="path218" />
      <path
         class="cls-2"
         d="m 524.61,326.12 v -3.9 h 3.03 v 3.9 z"
         id="path220" />
      <polygon
         class="cls-2"
         points="525.74,325.47 526.96,324.94 527.64,326.12 527.3,329.41 525.74,329.24 "
         id="polygon222" />
    </g>
  </g>
  <g
     id="Layer_3"
     data-name="Layer 3"
     transform="matrix(1.5891066,0,0,1.5891066,0.40762155,1.220472)"
     inkscape:export-filename="sbc-logo.png"
     inkscape:export-xdpi="9.6000004"
     inkscape:export-ydpi="9.6000004">
    <g
       id="g275">
      <path
         class="cls-2"
         d="m 128.32,366.84 v -4.38 h 5.67 v 4.38 z"
         id="path227" />
      <path
         class="cls-2"
         d="m 31.44,346.27 c 2.38,9.29 3.37,13.33 3.83,16.06 h 0.1 c 0.51,-2.73 1.73,-5.83 4.72,-16.06 h 5.42 c 2.65,8.75 4.14,13.64 4.52,16 h 0.06 c 0.42,-2.18 1.17,-5.35 4.04,-16 h 5.94 l -7.2,20.56 h -6.05 c -1.89,-6.42 -3.6,-11.88 -4.2,-14.92 h -0.06 c -0.53,2.97 -2.44,8.34 -4.58,14.92 h -6.21 l -6.64,-20.56 z"
         id="path229" />
      <path
         class="cls-2"
         d="m 64.29,346.27 c 2.38,9.29 3.37,13.33 3.83,16.06 h 0.1 c 0.51,-2.73 1.73,-5.83 4.72,-16.06 h 5.42 c 2.65,8.75 4.14,13.64 4.52,16 h 0.06 c 0.42,-2.18 1.17,-5.35 4.04,-16 h 5.94 l -7.2,20.56 h -6.05 c -1.89,-6.42 -3.6,-11.88 -4.2,-14.92 h -0.06 c -0.53,2.97 -2.44,8.34 -4.58,14.92 h -6.21 l -6.64,-20.56 z"
         id="path231" />
      <path
         class="cls-2"
         d="m 97.48,346.27 c 2.38,9.29 3.37,13.33 3.83,16.06 h 0.1 c 0.51,-2.73 1.73,-5.83 4.72,-16.06 h 5.42 c 2.65,8.75 4.14,13.64 4.52,16 h 0.06 c 0.42,-2.18 1.17,-5.35 4.04,-16 h 5.94 l -7.2,20.56 h -6.05 c -1.89,-6.42 -3.6,-11.88 -4.2,-14.92 h -0.06 c -0.53,2.97 -2.44,8.34 -4.58,14.92 h -6.21 l -6.64,-20.56 z"
         id="path233" />
      <path
         class="cls-2"
         d="m 146.61,359.61 c 0.37,2.69 2.53,4.87 7.48,4.87 4.95,0 7.02,-1.54 7.02,-4.46 0,-2.73 -1.97,-4.21 -8.22,-5.97 -7.43,-2.06 -10.63,-3.96 -10.63,-7.91 0,-3.95 4.23,-6.83 11.99,-6.83 9.28,0 11.74,3.83 11.88,7.08 h -5.64 c -0.24,-1.36 -0.92,-4.33 -6.42,-4.33 -4.26,0 -6.08,1.69 -6.08,3.8 0,2.48 1.9,3.64 7.67,5.24 8.19,2.26 11.32,4.51 11.32,8.65 0,4.14 -4.23,7.49 -13.05,7.49 -9.6,0 -12.71,-3.64 -13.06,-7.61 h 5.74 z"
         id="path235" />
      <path
         class="cls-2"
         d="m 193.19,356.42 c 0,7.21 -3.84,10.78 -11.12,10.78 -7.28,0 -11.07,-3.44 -11.07,-10.71 0,-7.27 4.37,-10.37 11.3,-10.37 6.93,0 10.88,3.46 10.88,10.29 z m -16.99,0.08 c 0,5.31 1.95,7.89 5.95,7.89 4,0 5.84,-2.6 5.84,-7.9 0,-5.3 -1.84,-7.53 -5.87,-7.53 -4.03,0 -5.92,2.25 -5.92,7.54 z"
         id="path237" />
      <path
         class="cls-2"
         d="m 218.16,361.17 c 0,2.64 0,4.66 0.06,5.65 h -4.76 c -0.15,-0.6 -0.21,-1.42 -0.24,-2.62 -1.16,1.99 -3.69,2.98 -7.27,2.98 -3.58,0 -7.75,-1.06 -7.75,-6.09 v -14.63 h 5.03 v 13.87 c 0,2.49 1.01,3.98 4.38,3.98 3.37,0 5.53,-1.29 5.53,-5.47 v -12.38 h 5.03 v 14.71 z"
         id="path239" />
      <path
         class="cls-2"
         d="m 224.29,352.77 c 0,-4.17 -0.03,-5.34 -0.06,-6.3 h 4.82 c 0.09,0.5 0.18,1.31 0.18,2.56 1.01,-1.5 3.1,-2.92 7.24,-2.92 4.6,0 7.96,1.76 7.96,6.21 v 14.51 h -5.02 V 353 c 0,-2.4 -1.12,-3.99 -4.52,-3.99 -3.9,0 -5.58,1.65 -5.58,5.61 v 12.21 h -5.02 z"
         id="path241" />
      <path
         class="cls-2"
         d="m 269.86,338.37 v 23.15 c 0,2.06 0,4.11 0.06,5.31 h -4.69 c -0.09,-0.52 -0.17,-1.8 -0.17,-2.62 -0.92,1.71 -2.82,2.99 -7.01,2.99 -6.29,0 -8.93,-3.65 -8.93,-10.74 0,-6.45 3.45,-10.31 9.92,-10.31 3.78,0 5.31,1.07 5.97,2.02 v -9.78 h 4.86 z m -15.77,18.11 c 0,5.65 1.84,7.83 5.39,7.83 4.47,0 5.63,-2.54 5.63,-7.95 0,-5.7 -1.09,-7.36 -5.3,-7.36 -3.43,0 -5.72,2 -5.72,7.48 z"
         id="path243" />
      <path
         class="cls-2"
         d="m 295.29,352.09 c 2.63,-0.56 5.54,-2.15 5.54,-5.75 0,-4.19 -4.22,-6.65 -11.25,-6.65 h -12.26 v 27.14 h 11.94 c 7.95,0 13.03,-3.02 13.03,-7.96 0,-4.17 -3.59,-6.04 -7,-6.78 z m -12.88,-9.66 h 5.98 c 4.63,0 6.98,1.57 6.98,4.22 0,2.81 -1.95,4.26 -7.55,4.26 h -5.41 z m 14.12,17.55 c -0.67,2.6 -6.37,2.56 -6.37,2.56 h -7.75 v -8.93 h 5.37 c 5.98,0 8.87,1.78 8.87,5.25 0,0.39 -0.05,0.76 -0.12,1.12 z"
         id="path245" />
      <path
         class="cls-2"
         d="m 326.98,361.17 c 0,2.64 0,4.66 0.06,5.65 h -4.64 c -0.15,-0.6 -0.21,-1.42 -0.23,-2.62 -1.13,1.99 -3.59,2.98 -7.09,2.98 -3.5,0 -7.56,-1.06 -7.56,-6.09 v -14.63 h 4.9 v 13.87 c 0,2.49 0.99,3.98 4.27,3.98 3.28,0 5.39,-1.29 5.39,-5.47 v -12.38 h 4.9 z"
         id="path247" />
      <path
         class="cls-2"
         d="m 333.04,346.47 h 5.12 v 20.36 h -5.12 z m 0.03,-8.1 h 5.12 v 4.29 h -5.12 z"
         id="path249" />
      <path
         class="cls-2"
         d="m 343.59,366.83 v -28.46 h 4.29 v 28.46 z"
         id="path251" />
      <path
         class="cls-2"
         d="m 373.36,338.37 v 23.15 c 0,2.06 0,4.11 0.06,5.31 h -4.78 c -0.09,-0.52 -0.18,-1.8 -0.18,-2.62 -0.94,1.71 -2.88,2.99 -7.14,2.99 -6.41,0 -9.1,-3.65 -9.1,-10.74 0,-6.45 3.51,-10.31 10.11,-10.31 3.85,0 5.42,1.07 6.09,2.02 v -9.78 h 4.95 z m -16.07,18.11 c 0,5.65 1.87,7.83 5.49,7.83 4.55,0 5.74,-2.54 5.74,-7.95 0,-5.7 -1.11,-7.36 -5.41,-7.36 -3.5,0 -5.83,2 -5.83,7.48 z"
         id="path253" />
      <path
         class="cls-2"
         d="m 379.17,346.47 h 5.12 v 20.36 h -5.12 z m 0.03,-8.1 h 5.12 v 4.29 h -5.12 z"
         id="path255" />
      <path
         class="cls-2"
         d="m 390.06,352.77 c 0,-4.17 -0.03,-5.34 -0.06,-6.3 h 4.82 c 0.09,0.5 0.18,1.31 0.18,2.56 1.01,-1.5 3.1,-2.92 7.24,-2.92 4.6,0 7.96,1.76 7.96,6.21 v 14.51 h -5.02 V 353 c 0,-2.4 -1.12,-3.99 -4.52,-3.99 -3.9,0 -5.58,1.65 -5.58,5.61 v 12.21 h -5.02 z"
         id="path257" />
      <path
         class="cls-2"
         d="m 436.21,364.28 c 0,5.23 -2.08,8.81 -11.06,8.81 -8.16,0 -9.91,-3.29 -10.09,-5.46 h 5.03 c 0.12,0.98 1,2.8 5.24,2.8 4.95,0 5.95,-2.3 5.95,-6.15 v -1.62 c -1.12,1.92 -3.69,2.87 -7.1,2.87 -6.32,0 -9.35,-3.42 -9.35,-9.51 0,-6.99 4.07,-10.37 10.02,-10.37 4.17,0 5.88,1.28 6.43,2.47 0,-0.81 0.15,-1.72 0.24,-2.14 h 4.79 c -0.06,1.06 -0.09,3.04 -0.09,5.71 v 12.59 z m -16.25,-8.34 c 0,4.62 1.96,6.83 5.63,6.83 4.57,0 5.77,-2.84 5.77,-7.34 0,-4.5 -0.85,-7.02 -5.42,-7.02 -3.9,0 -5.98,2.56 -5.98,7.53 z"
         id="path259" />
      <path
         class="cls-2"
         d="m 447.71,339.68 v 27.14 h -4.37 v -27.14 z"
         id="path261" />
      <path
         class="cls-2"
         d="m 454.59,352.77 c 0,-4.17 -0.03,-5.34 -0.06,-6.3 h 4.82 c 0.09,0.5 0.18,1.31 0.18,2.56 1.01,-1.5 3.1,-2.92 7.24,-2.92 4.6,0 7.96,1.76 7.96,6.21 v 14.51 h -5.02 V 353 c 0,-2.4 -1.12,-3.99 -4.52,-3.99 -3.9,0 -5.58,1.65 -5.58,5.61 v 12.21 h -5.02 z"
         id="path263" />
      <path
         class="cls-2"
         d="m 501.02,360.48 c -0.13,1.19 -0.8,6.71 -10.42,6.71 -8.56,0 -10.82,-4.69 -10.82,-10.63 0,-5.94 2.91,-10.45 11.23,-10.45 9.56,0 9.98,5.52 10.01,6.54 h -5.27 c -0.06,-0.82 -0.44,-3.74 -4.77,-3.74 -4.33,0 -5.94,3.03 -5.94,7.65 0,4.93 1.61,7.84 5.73,7.84 4.42,0 4.92,-2.82 5.14,-3.91 h 5.1 z"
         id="path265" />
      <path
         class="cls-2"
         d="m 504.83,366.84 v -4.16 h 5.18 v 4.16 z"
         id="path267" />
      <path
         class="cls-2"
         d="m 537.53,360.48 c -0.13,1.19 -0.8,6.71 -10.42,6.71 -8.56,0 -10.82,-4.69 -10.82,-10.63 0,-5.94 2.91,-10.45 11.23,-10.45 9.56,0 9.98,5.52 10.01,6.54 h -5.27 c -0.06,-0.82 -0.44,-3.74 -4.77,-3.74 -4.33,0 -5.94,3.03 -5.94,7.65 0,4.93 1.61,7.84 5.73,7.84 4.42,0 4.91,-2.82 5.14,-3.91 h 5.1 z"
         id="path269" />
      <path
         class="cls-2"
         d="m 562.47,356.42 c 0,7.21 -3.84,10.78 -11.12,10.78 -7.28,0 -11.07,-3.44 -11.07,-10.71 0,-7.27 4.37,-10.37 11.3,-10.37 6.93,0 10.88,3.46 10.88,10.29 z m -16.99,0.08 c 0,5.31 1.95,7.89 5.95,7.89 4,0 5.84,-2.6 5.84,-7.9 0,-5.3 -1.84,-7.53 -5.87,-7.53 -4.03,0 -5.92,2.25 -5.92,7.54 z"
         id="path271" />
      <path
         class="cls-2"
         d="m 566.99,352.58 c 0,-3.7 0,-5.16 -0.06,-6.11 h 4.83 c 0.12,0.56 0.18,1.62 0.18,2.5 1.27,-1.73 3.5,-2.84 6.97,-2.84 3.47,0 5.5,0.93 6.45,2.98 1.15,-1.6 3.5,-2.98 7.59,-2.98 4.09,0 7.63,1.28 7.63,5.95 v 14.75 h -4.98 v -14.21 c 0,-1.97 -0.9,-3.62 -4.2,-3.62 -3.77,0 -5.06,2.13 -5.06,4.83 v 13 h -5.01 v -14.12 c 0,-2.39 -1.22,-3.68 -4.14,-3.68 -3.57,0 -5.19,2.04 -5.19,5.06 v 12.75 h -5.01 v -14.25 z"
         id="path273" />
    </g>
  </g>
</svg>
